<svg width="62" height="78" viewBox="0 0 62 78" fill="none" xmlns="http://www.w3.org/2000/svg">
<path fill-rule="evenodd" clip-rule="evenodd" d="M20 0.5H7.625C3.82804 0.5 0.75 3.57804 0.75 7.375V70.625C0.75 74.422 3.82804 77.5 7.625 77.5H54.375C58.172 77.5 61.25 74.422 61.25 70.625V41.75C61.25 34.1561 55.0939 28 47.5 28H40.625C36.828 28 33.75 24.922 33.75 21.125V14.25C33.75 6.65609 27.5939 0.5 20 0.5ZM44.2378 40.5984C45.1205 39.3625 44.8343 37.645 43.5984 36.7622C42.3625 35.8795 40.645 36.1657 39.7622 37.4016L27.8991 54.01L21.9445 48.0555C20.8706 46.9815 19.1294 46.9815 18.0555 48.0555C16.9815 49.1294 16.9815 50.8706 18.0555 51.9445L26.3055 60.1945C26.8771 60.7661 27.6712 61.0573 28.4768 60.9906C29.2824 60.924 30.0179 60.5062 30.4878 59.8484L44.2378 40.5984Z" fill="#735EFA"/>
<path d="M34.561 1.65832C37.4825 5.03375 39.25 9.43547 39.25 14.25V21.125C39.25 21.8844 39.8656 22.5 40.625 22.5H47.5C52.3145 22.5 56.7162 24.2675 60.0917 27.189C56.8362 14.7262 47.0238 4.91384 34.561 1.65832Z" fill="#735EFA"/>
</svg>
